<svg enable-background="new 0 0 452.923 512" viewBox=V"0 0 452.923 512" xmlns="http://www.w3.org/2000/svg"><g id="_x30_6_Filter"><g><path d="m201.685 140.047c0-16.753-13.629-30.384-30.382-30.384s-30.384 13.631-30.384 30.384 13.631 30.384 30.384 30.384 30.382-13.631 30.382-30.384zm-50.058 0c0-10.849 8.827-19.676 19.676-19.676s19.674 8.827 19.674 19.676-8.825 19.676-19.674 19.676-19.676-8.827-19.676-19.676z"/><path d="m311.648 78.364c0-17.859-14.53-32.389-32.389-32.389s-32.389 14.53-32.389 32.389 14.53 32.389 32.389 32.389 32.389-14.53 32.389-32.389zm-54.071 0c0-11.956 9.726-21.682 21.682-21.682s21.682 9.726 21.682 21.682-9.726 21.682-21.682 21.682-21.682-9.727-21.682-21.682z"/><path d="m118.158 72.699c0-19.959-16.238-36.195-36.197-36.195s-36.195 16.236-36.195 36.195 16.236 36.195 36.195 36.195 36.197-16.237 36.197-36.195zm-61.685 0c0-14.053 11.435-25.488 25.488-25.488 14.055 0 25.49 11.435 25.49 25.488s-11.435 25.488-25.49 25.488c-14.053 0-25.488-11.435-25.488-25.488z"/><path d="m193.681 474.539c1.411.98 3.244 1.246 4.923.621l59.717-22.217c2.095-.78 3.486-2.779 3.486-5.017v-53.707l146.943-145.683h7.793c6.408 0 11.619-5.211 11.619-11.619v-42.122c0-6.408-5.211-11.619-11.619-11.619h-45.461c.455-2.26.711-4.59.711-6.983 0-19.959-16.238-36.195-36.197-36.195s-36.195 16.236-36.195 36.195c0 2.395.268 4.722.725 6.983h-263.746c-6.408 0-11.619 5.211-11.619 11.619v42.122c0 6.408 5.211 11.619 11.619 11.619h7.796l147.207 145.684v75.922c0 1.753.86 3.397 2.298 4.397zm116.426-298.345c0-14.053 11.435-25.488 25.488-25.488 14.055 0 25.49 11.435 25.49 25.488 0 2.428-.384 4.759-1.027 6.983h-48.944c-.638-2.223-1.007-4.557-1.007-6.983zm-274.638 60.723v-42.122c0-.502.41-.912.912-.912h380.162c.502 0 .912.41.912.912v42.122c0 .502-.41.912-.912.912-126.358 0-252.943 0-380.162 0-.502 0-.912-.41-.912-.912zm23.93 11.619h334.144l-140.857 139.649c-1.014 1.006-1.585 2.374-1.585 3.802v52.218l-49.01 18.234v-70.452c0-1.43-.571-2.8-1.587-3.806z"/></g></g><g id="Layer_1"/></svg>