<svg id="Layer_1" height="512" viewBox="0 0 512 512" width="512" xmlns="http://www.w3.org/2000/svg" data-name="Layer 1"><path d="m313.164 26.994v52.019a4.642 4.642 0 0 0 4.633 4.633h52.019a9.278 9.278 0 0 0 -1.91-2.714l-52.028-52.027a9.3 9.3 0 0 0 -2.714-1.911zm180.205 424.323-52.563-51a8.727 8.727 0 0 0 -12.305.185l-1.081 1.114-30-29.116a95.769 95.769 0 1 0 -16.244 17.884l29.434 28.561-1.082 1.114a8.729 8.729 0 0 0 .185 12.305l52.563 51a8.728 8.728 0 0 0 12.305-.185l18.977-19.557a8.727 8.727 0 0 0 -.189-12.305zm-174.376-64.973a68.729 68.729 0 1 1 68.729-68.729 68.729 68.729 0 0 1 -68.729 68.729zm-125.683-220.353a11.567 11.567 0 1 0 11.567 11.567 11.567 11.567 0 0 0 -11.567-11.567zm0-14.975a9.031 9.031 0 0 0 9.023-8.7l2.283-63.2a8.99 8.99 0 0 0 -9.023-9.355h-4.565a8.99 8.99 0 0 0 -9.028 9.347l2.283 63.2a9.03 9.03 0 0 0 9.023 8.7zm-47.887 76.292h107.811a111.76 111.76 0 0 1 117.386-8.779v-118.883h-52.82a20.649 20.649 0 0 1 -20.632-20.634v-52.821h-271.901a9.284 9.284 0 0 0 -9.267 9.266v441.086a9.284 9.284 0 0 0 9.267 9.266h336.087a9.285 9.285 0 0 0 9.266-9.266v-59.843a111.8 111.8 0 0 1 -109.952-3.8h-115.245a8 8 0 1 1 0-16h94.884a111.918 111.918 0 0 1 -23.643-34.423h-71.241a8 8 0 0 1 0-16h65.63a111.52 111.52 0 0 1 -3.281-18.376h-62.349a8 8 0 1 1 0-16h61.992a111.169 111.169 0 0 1 7.221-34.424h-69.213a8 8 0 0 1 0-16h76.851a111.956 111.956 0 0 1 13.313-18.376h-90.164a8 8 0 0 1 0-16zm-84.435 8a8.023 8.023 0 0 1 8-8h34.375a8.024 8.024 0 0 1 8 8v34.376a8.024 8.024 0 0 1 -8 8h-34.375a8.023 8.023 0 0 1 -8-8zm0 84.8a8.023 8.023 0 0 1 8-8h34.375a8.024 8.024 0 0 1 8 8v34.375a8.023 8.023 0 0 1 -8 8h-34.375a8.022 8.022 0 0 1 -8-8zm50.376 119.175a8.024 8.024 0 0 1 -8 8h-34.377a8.023 8.023 0 0 1 -8-8v-34.377a8.023 8.023 0 0 1 8-8h34.376a8.024 8.024 0 0 1 8 8zm34.059-8h177.583a8 8 0 0 1 0 16h-177.583a8 8 0 1 1 0-16zm-34.892-301.844a82.779 82.779 0 1 1 82.779 82.779 82.775 82.775 0 0 1 -82.779-82.779z" fill-rule="evenodd"/></svg>